{
  "accessors": [
    {
      "bufferView": 2,
      "componentType": 5126,
      "count": 2081,
      "max": [
        1.4900321960449219,
        0.7296299338340759,
        1.4900321960449219
      ],
      "min": [
        -1.4900321960449219,
        0.051926374435424805,
        -1.4900321960449219
      ],
      "type": "VEC3"
    },
    {
      "bufferView": 2,
      "byteOffset": 24972,
      "componentType": 5126,
      "count": 2081,
      "max": [
        0.9930365681648254,
        0.9999809265136719,
        0.9930365681648254
      ],
      "min": [
        -0.9930365681648254,
        -0.9975919127464294,
        -0.9930365681648254
      ],
      "type": "VEC3"
    },
    {
      "bufferView": 1,
      "componentType": 5126,
      "count": 2081,
      "max": [
        0.875,
        1.0006749629974365
      ],
      "min": [
        0.125,
        -0.002360058017075062
      ],
      "type": "VEC2"
    },
    {
      "bufferView": 0,
      "componentType": 5125,
      "count": 6708,
      "type": "SCALAR"
    },
    {
      "bufferView": 2,
      "byteOffset": 49944,
      "componentType": 5126,
      "count": 7472,
      "max": [
        1.3481999635696411,
        0.051463425159454346,
        1.3481999635696411
      ],
      "min": [
        -1.3481999635696411,
        -0.18171316385269165,
        -1.3481999635696411
      ],
      "type": "VEC3"
    },
    {
      "bufferView": 2,
      "byteOffset": 139608,
      "componentType": 5126,
      "count": 7472,
      "max": [
        1.0,
        1.0,
        1.0
      ],
      "min": [
        -1.0,
        -1.0,
        -1.0
      ],
      "type": "VEC3"
    },
    {
      "bufferView": 1,
      "byteOffset": 16648,
      "componentType": 5126,
      "count": 7472,
      "max": [
        12.0,
        1.0
      ],
      "min": [
        -0.00017116920207627118,
        0.0
      ],
      "type": "VEC2"
    },
    {
      "bufferView": 0,
      "byteOffset": 26832,
      "componentType": 5125,
      "count": 25488,
      "type": "SCALAR"
    },
    {
      "bufferView": 2,
      "byteOffset": 229272,
      "componentType": 5126,
      "count": 3752,
      "max": [
        1.3481999635696411,
        -0.6963198184967041,
        1.6257436275482178
      ],
      "min": [
        -1.3481999635696411,
        -1.217768669128418,
        -1.3481999635696411
      ],
      "type": "VEC3"
    },
    {
      "bufferView": 2,
      "byteOffset": 274296,
      "componentType": 5126,
      "count": 3752,
      "max": [
        1.0,
        1.0,
        1.0
      ],
      "min": [
        -1.0,
        -1.0,
        -1.0
      ],
      "type": "VEC3"
    },
    {
      "bufferView": 1,
      "byteOffset": 76424,
      "componentType": 5126,
      "count": 3752,
      "max": [
        4.667777061462402,
        1.0000011920928955
      ],
      "min": [
        0.0,
        0.0
      ],
      "type": "VEC2"
    },
    {
      "bufferView": 0,
      "byteOffset": 128784,
      "componentType": 5125,
      "count": 11394,
      "type": "SCALAR"
    },
    {
      "bufferView": 2,
      "byteOffset": 319320,
      "componentType": 5126,
      "count": 4,
      "max": [
        0.13142240047454834,
        -0.7777668237686157,
        1.590205430984497
      ],
      "min": [
        -0.262612521648407,
        -0.9517152905464172,
        1.529736876487732
      ],
      "type": "VEC3"
    },
    {
      "bufferView": 2,
      "byteOffset": 319368,
      "componentType": 5126,
      "count": 4,
      "max": [
        0.0,
        0.3283498287200928,
        0.9445562958717346
      ],
      "min": [
        0.0,
        0.3283498287200928,
        0.9445562958717346
      ],
      "type": "VEC3"
    },
    {
      "bufferView": 1,
      "byteOffset": 106440,
      "componentType": 5126,
      "count": 4,
      "max": [
        0.6023898124694824,
        0.9924124479293823
      ],
      "min": [
        0.5030308961868286,
        0.7575874924659729
      ],
      "type": "VEC2"
    },
    {
      "bufferView": 0,
      "byteOffset": 174360,
      "componentType": 5125,
      "count": 6,
      "type": "SCALAR"
    },
    {
      "bufferView": 2,
      "byteOffset": 319416,
      "componentType": 5126,
      "count": 764,
      "max": [
        0.3693986237049103,
        -0.6914148330688477,
        1.633704423904419
      ],
      "min": [
        -0.37910908460617065,
        -1.045120358467102,
        1.3015152215957642
      ],
      "type": "VEC3"
    },
    {
      "bufferView": 2,
      "byteOffset": 328584,
      "componentType": 5126,
      "count": 764,
      "max": [
        1.0,
        1.0,
        0.9818917512893677
      ],
      "min": [
        -1.0,
        -1.0,
        -0.985934317111969
      ],
      "type": "VEC3"
    },
    {
      "bufferView": 1,
      "byteOffset": 106472,
      "componentType": 5126,
      "count": 764,
      "max": [
        0.8741121292114258,
        1.0
      ],
      "min": [
        0.0,
        0.0
      ],
      "type": "VEC2"
    },
    {
      "bufferView": 0,
      "byteOffset": 174384,
      "componentType": 5125,
      "count": 1188,
      "type": "SCALAR"
    },
    {
      "bufferView": 2,
      "byteOffset": 337752,
      "componentType": 5126,
      "count": 1984,
      "max": [
        7.672183990478516,
        35.29803466796875,
        39.801265716552734
      ],
      "min": [
        5.672183990478516,
        33.29803466796875,
        37.801265716552734
      ],
      "type": "VEC3"
    },
    {
      "bufferView": 2,
      "byteOffset": 361560,
      "componentType": 5126,
      "count": 1984,
      "max": [
        0.9904384016990662,
        0.9951384663581848,
        0.9904388785362244
      ],
      "min": [
        -0.9904381632804871,
        -0.9951384663581848,
        -0.9904388785362244
      ],
      "type": "VEC3"
    },
    {
      "bufferView": 1,
      "byteOffset": 112584,
      "componentType": 5126,
      "count": 1984,
      "max": [
        1.000000238418579,
        1.0
      ],
      "min": [
        0.0,
        0.0
      ],
      "type": "VEC2"
    },
    {
      "bufferView": 0,
      "byteOffset": 179136,
      "componentType": 5125,
      "count": 2880,
      "type": "SCALAR"
    },
    {
      "bufferView": 2,
      "byteOffset": 385368,
      "componentType": 5126,
      "count": 151,
      "max": [
        15.791374206542969,
        37.15221405029297,
        39.28444290161133
      ],
      "min": [
        -15.654037475585938,
        7.400112152099609,
        38.26065444946289
      ],
      "type": "VEC3"
    },
    {
      "bufferView": 2,
      "byteOffset": 387180,
      "componentType": 5126,
      "count": 151,
      "max": [
        0.7278809547424316,
        0.7278809547424316,
        1.0
      ],
      "min": [
        -0.7278809547424316,
        -0.7278809547424316,
        0.6856968998908997
      ],
      "type": "VEC3"
    },
    {
      "bufferView": 1,
      "byteOffset": 128456,
      "componentType": 5126,
      "count": 151,
      "max": [
        1.0,
        0.9466975331306458
      ],
      "min": [
        0.0,
        0.010000064969062805
      ],
      "type": "VEC2"
    },
    {
      "bufferView": 0,
      "byteOffset": 190656,
      "componentType": 5125,
      "count": 528,
      "type": "SCALAR"
    },
    {
      "bufferView": 2,
      "byteOffset": 388992,
      "componentType": 5126,
      "count": 249,
      "max": [
        22.723968505859375,
        51.704010009765625,
        39.71965408325195
      ],
      "min": [
        -22.586627960205078,
        -1.0587387084960938,
        5.532291412353516
      ],
      "type": "VEC3"
    },
    {
      "bufferView": 2,
      "byteOffset": 391980,
      "componentType": 5126,
      "count": 249,
      "max": [
        0.9862895011901855,
        0.9617039561271667,
        0.9973515868186951
      ],
      "min": [
        -0.9862895011901855,
        -0.9592739343643188,
        -0.9562130570411682
      ],
      "type": "VEC3"
    },
    {
      "bufferView": 1,
      "byteOffset": 129664,
      "componentType": 5126,
      "count": 249,
      "max": [
        0.875,
        1.0
      ],
      "min": [
        0.6249998807907104,
        0.0
      ],
      "type": "VEC2"
    },
    {
      "bufferView": 0,
      "byteOffset": 192768,
      "componentType": 5125,
      "count": 804,
      "type": "SCALAR"
    },
    {
      "bufferView": 2,
      "byteOffset": 394968,
      "componentType": 5126,
      "count": 595,
      "max": [
        21.754709243774414,
        50.941261291503906,
        37.5831413269043
      ],
      "min": [
        -21.61739730834961,
        -64.57876586914063,
        -26.518550872802734
      ],
      "type": "VEC3"
    },
    {
      "bufferView": 2,
      "byteOffset": 402108,
      "componentType": 5126,
      "count": 595,
      "max": [
        1.0,
        0.9630045890808105,
        0.9733166098594666
      ],
      "min": [
        -1.0,
        -0.9614423513412476,
        -0.9630045890808105
      ],
      "type": "VEC3"
    },
    {
      "bufferView": 1,
      "byteOffset": 131656,
      "componentType": 5126,
      "count": 595,
      "max": [
        0.875,
        1.0
      ],
      "min": [
        0.125,
        0.0
      ],
      "type": "VEC2"
    },
    {
      "bufferView": 0,
      "byteOffset": 195984,
      "componentType": 5125,
      "count": 1866,
      "type": "SCALAR"
    },
    {
      "bufferView": 2,
      "byteOffset": 409248,
      "componentType": 5126,
      "count": 643,
      "max": [
        1.2601065635681152,
        1.4031682014465332,
        1.7662028074264526
      ],
      "min": [
        -1.2600445747375488,
        -0.4916480779647827,
        -0.6004114151000977
      ],
      "type": "VEC3"
    },
    {
      "bufferView": 2,
      "byteOffset": 416964,
      "componentType": 5126,
      "count": 643,
      "max": [
        1.0,
        1.0,
        0.9996967315673828
      ],
      "min": [
        -1.0,
        -0.9997310638427734,
        -0.9999990463256836
      ],
      "type": "VEC3"
    },
    {
      "bufferView": 1,
      "byteOffset": 136416,
      "componentType": 5126,
      "count": 643,
      "max": [
        0.875,
        1.0000991821289063
      ],
      "min": [
        0.4993111491203308,
        0.0
      ],
      "type": "VEC2"
    },
    {
      "bufferView": 0,
      "byteOffset": 203448,
      "componentType": 5125,
      "count": 2328,
      "type": "SCALAR"
    },
    {
      "bufferView": 2,
      "byteOffset": 424680,
      "componentType": 5126,
      "count": 1113,
      "max": [
        1.2901957035064697,
        1.3925421237945557,
        1.7721797227859497
      ],
      "min": [
        -1.2901334762573242,
        -1.5828626155853271,
        -1.5014946460723877
      ],
      "type": "VEC3"
    },
    {
      "bufferView": 2,
      "byteOffset": 438036,
      "componentType": 5126,
      "count": 1113,
      "max": [
        1.0,
        0.9977025389671326,
        1.0
      ],
      "min": [
        -1.0,
        -1.0,
        -0.9999990463256836
      ],
      "type": "VEC3"
    },
    {
      "bufferView": 1,
      "byteOffset": 141560,
      "componentType": 5126,
      "count": 1113,
      "max": [
        1.0,
        1.0006526708602905
      ],
      "min": [
        0.0,
        -3.889952495228499e-05
      ],
      "type": "VEC2"
    },
    {
      "bufferView": 0,
      "byteOffset": 212760,
      "componentType": 5125,
      "count": 2976,
      "type": "SCALAR"
    },
    {
      "bufferView": 2,
      "byteOffset": 451392,
      "componentType": 5126,
      "count": 34,
      "max": [
        0.7200010418891907,
        0.8130164742469788,
        1.7429007291793823
      ],
      "min": [
        -0.7199388146400452,
        -0.430306613445282,
        1.2674429416656494
      ],
      "type": "VEC3"
    },
    {
      "bufferView": 2,
      "byteOffset": 451800,
      "componentType": 5126,
      "count": 34,
      "max": [
        0.7739161849021912,
        0.0,
        1.0
      ],
      "min": [
        -0.7739161849021912,
        -0.7489417791366577,
        -0.8713412284851074
      ],
      "type": "VEC3"
    },
    {
      "bufferView": 1,
      "byteOffset": 150464,
      "componentType": 5126,
      "count": 34,
      "max": [
        0.5985854268074036,
        1.0
      ],
      "min": [
        0.4999999701976776,
        0.75
      ],
      "type": "VEC2"
    },
    {
      "bufferView": 0,
      "byteOffset": 224664,
      "componentType": 5125,
      "count": 90,
      "type": "SCALAR"
    }
  ],
  "asset": {
    "extras": {
      "author": "judacraz (https://sketchfab.com/judacraz)",
      "license": "CC-BY-4.0 (http://creativecommons.org/licenses/by/4.0/)",
      "source": "https://sketchfab.com/3d-models/pet-feeder-3ce6d080700344cab6ccc696d81fcad5",
      "title": "Pet Feeder"
    },
    "generator": "Sketchfab-12.66.0",
    "version": "2.0"
  },
  "bufferViews": [
    {
      "buffer": 0,
      "byteLength": 225024,
      "name": "floatBufferViews",
      "target": 34963
    },
    {
      "buffer": 0,
      "byteLength": 150736,
      "byteOffset": 225024,
      "byteStride": 8,
      "name": "floatBufferViews",
      "target": 34962
    },
    {
      "buffer": 0,
      "byteLength": 452208,
      "byteOffset": 375760,
      "byteStride": 12,
      "name": "floatBufferViews",
      "target": 34962
    }
  ],
  "buffers": [
    {
      "byteLength": 827968,
      "uri": "scene.bin"
    }
  ],
  "materials": [
    {
      "name": "Material",
      "pbrMetallicRoughness": {
        "baseColorFactor": [
          0.0,
          0.289283,
          0.843493,
          1.0
        ],
        "metallicFactor": 0.0992366,
        "roughnessFactor": 0.274809
      }
    },
    {
      "name": "Material.005",
      "pbrMetallicRoughness": {
        "baseColorFactor": [
          0.149252,
          0.144144,
          0.20893,
          1.0
        ],
        "metallicFactor": 0.900763,
        "roughnessFactor": 0.465649
      }
    },
    {
      "name": "Material.002",
      "pbrMetallicRoughness": {
        "baseColorFactor": [
          0.149252,
          0.144144,
          0.20893,
          1.0
        ],
        "metallicFactor": 0.900763,
        "roughnessFactor": 0.465649
      }
    },
    {
      "name": "Material.003",
      "pbrMetallicRoughness": {
        "baseColorFactor": [
          0.000257011,
          0.000429603,
          0.000332523,
          1.0
        ],
        "metallicFactor": 0.0,
        "roughnessFactor": 0.175573
      }
    },
    {
      "doubleSided": true,
      "emissiveFactor": [
        0.344362,
        1.0,
        0.0
      ],
      "name": "Material.006"
    }
  ],
  "meshes": [
    {
      "name": "Object_0",
      "primitives": [
        {
          "attributes": {
            "NORMAL": 1,
            "POSITION": 0,
            "TEXCOORD_0": 2
          },
          "indices": 3,
          "material": 0,
          "mode": 4
        }
      ]
    },
    {
      "name": "Object_1",
      "primitives": [
        {
          "attributes": {
            "NORMAL": 5,
            "POSITION": 4,
            "TEXCOORD_0": 6
          },
          "indices": 7,
          "material": 1,
          "mode": 4
        }
      ]
    },
    {
      "name": "Object_2",
      "primitives": [
        {
          "attributes": {
            "NORMAL": 9,
            "POSITION": 8,
            "TEXCOORD_0": 10
          },
          "indices": 11,
          "material": 2,
          "mode": 4
        }
      ]
    },
    {
      "name": "Object_3",
      "primitives": [
        {
          "attributes": {
            "NORMAL": 13,
            "POSITION": 12,
            "TEXCOORD_0": 14
          },
          "indices": 15,
          "material": 3,
          "mode": 4
        }
      ]
    },
    {
      "name": "Object_4",
      "primitives": [
        {
          "attributes": {
            "NORMAL": 17,
            "POSITION": 16,
            "TEXCOORD_0": 18
          },
          "indices": 19,
          "material": 0,
          "mode": 4
        }
      ]
    },
    {
      "name": "Object_5",
      "primitives": [
        {
          "attributes": {
            "NORMAL": 21,
            "POSITION": 20,
            "TEXCOORD_0": 22
          },
          "indices": 23,
          "material": 4,
          "mode": 4
        }
      ]
    },
    {
      "name": "Object_6",
      "primitives": [
        {
          "attributes": {
            "NORMAL": 25,
            "POSITION": 24,
            "TEXCOORD_0": 26
          },
          "indices": 27,
          "material": 3,
          "mode": 4
        }
      ]
    },
    {
      "name": "Object_7",
      "primitives": [
        {
          "attributes": {
            "NORMAL": 29,
            "POSITION": 28,
            "TEXCOORD_0": 30
          },
          "indices": 31,
          "material": 0,
          "mode": 4
        }
      ]
    },
    {
      "name": "Object_8",
      "primitives": [
        {
          "attributes": {
            "NORMAL": 33,
            "POSITION": 32,
            "TEXCOORD_0": 34
          },
          "indices": 35,
          "material": 2,
          "mode": 4
        }
      ]
    },
    {
      "name": "Object_9",
      "primitives": [
        {
          "attributes": {
            "NORMAL": 37,
            "POSITION": 36,
            "TEXCOORD_0": 38
          },
          "indices": 39,
          "material": 0,
          "mode": 4
        }
      ]
    },
    {
      "name": "Object_10",
      "primitives": [
        {
          "attributes": {
            "NORMAL": 41,
            "POSITION": 40,
            "TEXCOORD_0": 42
          },
          "indices": 43,
          "material": 2,
          "mode": 4
        }
      ]
    },
    {
      "name": "Object_11",
      "primitives": [
        {
          "attributes": {
            "NORMAL": 45,
            "POSITION": 44,
            "TEXCOORD_0": 46
          },
          "indices": 47,
          "material": 3,
          "mode": 4
        }
      ]
    }
  ],
  "nodes": [
    {
      "children": [
        1
      ],
      "matrix": [
        1.0,
        0.0,
        0.0,
        0.0,
        0.0,
        2.220446049250313e-16,
        -1.0,
        0.0,
        0.0,
        1.0,
        2.220446049250313e-16,
        0.0,
        0.0,
        0.0,
        0.0,
        1.0
      ],
      "name": "Sketchfab_model"
    },
    {
      "children": [
        2
      ],
      "name": "root"
    },
    {
      "children": [
        3,
        5,
        7,
        11,
        16
      ],
      "matrix": [
        1.0,
        0.0,
        0.0,
        0.0,
        0.0,
        2.220446049250313e-16,
        1.0,
        0.0,
        0.0,
        -1.0,
        2.220446049250313e-16,
        0.0,
        0.0,
        0.0,
        0.0,
        1.0
      ],
      "name": "GLTF_SceneRootNode"
    },
    {
      "children": [
        4
      ],
      "matrix": [
        1.0,
        0.0,
        0.0,
        0.0,
        0.0,
        1.0,
        0.0,
        0.0,
        0.0,
        0.0,
        1.0,
        0.0,
        0.0,
        0.22956758737564087,
        0.0,
        1.0
      ],
      "name": "bowl_5"
    },
    {
      "mesh": 0,
      "name": "Object_4"
    },
    {
      "children": [
        6
      ],
      "matrix": [
        1.1258732080459595,
        0.0,
        0.0,
        0.0,
        0.0,
        1.1258732080459595,
        0.0,
        0.0,
        0.0,
        0.0,
        1.1258732080459595,
        0.0,
        0.0,
        0.20209413766860962,
        0.0,
        1.0
      ],
      "name": "base_6"
    },
    {
      "mesh": 1,
      "name": "Object_6"
    },
    {
      "children": [
        8,
        9,
        10
      ],
      "matrix": [
        1.1258732080459595,
        0.0,
        0.0,
        0.0,
        0.0,
        1.1258732080459595,
        0.0,
        0.0,
        0.0,
        0.0,
        1.1258732080459595,
        0.0,
        0.0,
        1.536157488822937,
        0.0,
        1.0
      ],
      "name": "scale_7"
    },
    {
      "mesh": 2,
      "name": "Object_8"
    },
    {
      "mesh": 3,
      "name": "Object_9"
    },
    {
      "mesh": 4,
      "name": "Object_10"
    },
    {
      "children": [
        12,
        13,
        14,
        15
      ],
      "matrix": [
        0.010022064670920372,
        0.0,
        0.0,
        0.0,
        0.0,
        0.010022064670920372,
        0.0,
        0.0,
        0.0,
        0.0,
        0.010022064670920372,
        0.0,
        0.9185500741004944,
        1.1061363220214844,
        -1.420005202293396,
        1.0
      ],
      "name": "camera_8"
    },
    {
      "mesh": 5,
      "name": "Object_12"
    },
    {
      "mesh": 6,
      "name": "Object_13"
    },
    {
      "mesh": 7,
      "name": "Object_14"
    },
    {
      "mesh": 8,
      "name": "Object_15"
    },
    {
      "children": [
        17,
        18,
        19
      ],
      "matrix": [
        0.6894500851631165,
        0.0,
        0.0,
        0.0,
        0.0,
        1.0,
        0.0,
        0.0,
        0.0,
        0.0,
        1.0,
        0.0,
        -0.2500862181186676,
        1.5877679586410522,
        -2.4503040313720703,
        1.0
      ],
      "name": "feeder_9"
    },
    {
      "mesh": 9,
      "name": "Object_17"
    },
    {
      "mesh": 10,
      "name": "Object_18"
    },
    {
      "mesh": 11,
      "name": "Object_19"
    }
  ],
  "scene": 0,
  "scenes": [
    {
      "name": "Sketchfab_Scene",
      "nodes": [
        0
      ]
    }
  ]
}
